<svg width="636" height="446" viewBox="0 0 636 446" fill="none" xmlns="http://www.w3.org/2000/svg">
<path d="M519.462 279.674H109.849C107.054 279.671 104.373 278.559 102.396 276.582C100.419 274.604 99.3064 271.923 99.3032 269.127V16.5522C99.3056 14.5038 100.12 12.5399 101.569 11.0913C103.017 9.64275 104.981 8.82793 107.03 8.82556H522.148C524.232 8.82794 526.23 9.65683 527.704 11.1304C529.177 12.604 530.006 14.6019 530.009 16.6858V269.127C530.006 271.923 528.893 274.604 526.916 276.582C524.939 278.559 522.258 279.671 519.462 279.674Z" fill="#F2F2F2"/>
<path d="M504.52 264.738H122.773C117.176 264.738 112.623 260.474 112.623 255.234V35.2886C112.623 31.4024 115.997 28.2405 120.144 28.2405H507.023C511.239 28.2405 514.669 31.4544 514.669 35.4048V255.234C514.669 260.474 510.115 264.738 504.52 264.738Z" fill="white"/>
<path d="M529.863 15.9477H99.1562V10.5783C99.1603 7.77289 100.277 5.08361 102.261 3.10048C104.246 1.11735 106.935 0.00231777 109.741 0H519.278C522.083 0.00230425 524.773 1.11733 526.758 3.10047C528.742 5.0836 529.858 7.77289 529.863 10.5783V15.9477Z" fill="#CCCCCC"/>
<path d="M118.392 10.728C119.904 10.728 121.13 9.50223 121.13 7.99013C121.13 6.47805 119.904 5.25226 118.392 5.25226C116.88 5.25226 115.655 6.47805 115.655 7.99013C115.655 9.50223 116.88 10.728 118.392 10.728Z" fill="white"/>
<path d="M128.785 10.728C130.297 10.728 131.522 9.50223 131.522 7.99013C131.522 6.47805 130.297 5.25226 128.785 5.25226C127.273 5.25226 126.047 6.47805 126.047 7.99013C126.047 9.50223 127.273 10.728 128.785 10.728Z" fill="white"/>
<path d="M139.178 10.728C140.689 10.728 141.916 9.50223 141.916 7.99013C141.916 6.47805 140.689 5.25226 139.178 5.25226C137.665 5.25226 136.44 6.47805 136.44 7.99013C136.44 9.50223 137.665 10.728 139.178 10.728Z" fill="white"/>
<path d="M462.501 227.848H166.664C163.698 227.845 160.855 226.665 158.758 224.568C156.661 222.471 155.481 219.628 155.478 216.662V74.0264C155.48 71.8085 156.362 69.6821 157.931 68.1137C159.5 66.5453 161.626 65.6631 163.843 65.6605H465.188C467.441 65.6632 469.602 66.5594 471.195 68.1528C472.788 69.7462 473.685 71.9065 473.687 74.1599V216.662C473.684 219.628 472.504 222.471 470.408 224.568C468.31 226.665 465.467 227.845 462.501 227.848ZM163.843 66.9389C161.964 66.9411 160.163 67.6885 158.834 69.0171C157.506 70.3458 156.758 72.1474 156.756 74.0264V216.662C156.76 219.289 157.804 221.807 159.662 223.665C161.519 225.522 164.037 226.567 166.664 226.57H462.501C465.128 226.567 467.646 225.522 469.503 223.665C471.361 221.807 472.406 219.289 472.409 216.662V74.1599C472.407 72.2455 471.646 70.4101 470.291 69.0563C468.937 67.7026 467.103 66.9411 465.188 66.9389H163.843Z" fill="#CCCCCC"/>
<path d="M176.891 216.662H452.275C454.987 216.662 457.588 215.584 459.506 213.667C461.424 211.749 462.501 209.148 462.501 206.436V87.1973C462.501 84.4849 461.424 81.8837 459.506 79.9657C457.588 78.0478 454.987 76.9703 452.275 76.9703H176.891C174.178 76.9703 171.577 78.0478 169.658 79.9657C167.741 81.8837 166.664 84.4849 166.664 87.1973V206.436C166.664 209.148 167.741 211.749 169.658 213.667C171.577 215.584 174.178 216.662 176.891 216.662Z" fill="#F2F2F2"/>
<path d="M208.159 111.663C211.337 111.663 213.912 109.087 213.912 105.91C213.912 102.733 211.337 100.157 208.159 100.157C204.982 100.157 202.406 102.733 202.406 105.91C202.406 109.087 204.982 111.663 208.159 111.663Z" fill="#CCCCCC"/>
<path d="M208.159 133.394C211.337 133.394 213.912 130.819 213.912 127.641C213.912 124.465 211.337 121.889 208.159 121.889C204.982 121.889 202.406 124.465 202.406 127.641C202.406 130.819 204.982 133.394 208.159 133.394Z" fill="#CCCCCC"/>
<path d="M208.159 155.125C211.337 155.125 213.912 152.551 213.912 149.373C213.912 146.196 211.337 143.62 208.159 143.62C204.982 143.62 202.406 146.196 202.406 149.373C202.406 152.551 204.982 155.125 208.159 155.125Z" fill="#CCCCCC"/>
<path d="M208.159 176.857C211.337 176.857 213.912 174.282 213.912 171.105C213.912 167.928 211.337 165.352 208.159 165.352C204.982 165.352 202.406 167.928 202.406 171.105C202.406 174.282 204.982 176.857 208.159 176.857Z" fill="#CCCCCC"/>
<path d="M426.12 106.549H236.921C236.752 106.549 236.59 106.482 236.47 106.362C236.35 106.242 236.282 106.079 236.282 105.91C236.282 105.741 236.35 105.578 236.47 105.458C236.59 105.338 236.752 105.271 236.921 105.271H426.12C426.289 105.271 426.452 105.338 426.571 105.458C426.691 105.578 426.759 105.741 426.759 105.91C426.759 106.079 426.691 106.242 426.571 106.362C426.452 106.482 426.289 106.549 426.12 106.549Z" fill="#CCCCCC"/>
<path d="M426.12 128.28H236.921C236.752 128.28 236.59 128.214 236.47 128.094C236.35 127.974 236.282 127.811 236.282 127.641C236.282 127.472 236.35 127.309 236.47 127.19C236.59 127.07 236.752 127.002 236.921 127.002H426.12C426.289 127.002 426.452 127.07 426.571 127.19C426.691 127.309 426.759 127.472 426.759 127.641C426.759 127.811 426.691 127.974 426.571 128.094C426.452 128.214 426.289 128.28 426.12 128.28Z" fill="#CCCCCC"/>
<path d="M426.12 150.012H236.921C236.752 150.012 236.59 149.945 236.47 149.826C236.35 149.706 236.282 149.543 236.282 149.373C236.282 149.203 236.35 149.041 236.47 148.921C236.59 148.802 236.752 148.734 236.921 148.734H426.12C426.289 148.734 426.452 148.802 426.571 148.921C426.691 149.041 426.759 149.203 426.759 149.373C426.759 149.543 426.691 149.706 426.571 149.826C426.452 149.945 426.289 150.012 426.12 150.012Z" fill="#CCCCCC"/>
<path d="M426.12 171.744H236.921C236.752 171.744 236.59 171.677 236.47 171.557C236.35 171.437 236.282 171.274 236.282 171.104C236.282 170.935 236.35 170.773 236.47 170.653C236.59 170.533 236.752 170.465 236.921 170.465H426.12C426.289 170.465 426.452 170.533 426.571 170.653C426.691 170.773 426.759 170.935 426.759 171.104C426.759 171.274 426.691 171.437 426.571 171.557C426.452 171.677 426.289 171.744 426.12 171.744Z" fill="#CCCCCC"/>
<path d="M272.716 193.478H254.179C253.332 193.476 252.52 193.139 251.921 192.54C251.321 191.942 250.984 191.13 250.983 190.282V173.024C250.984 172.176 251.321 171.364 251.921 170.765C252.52 170.167 253.332 169.829 254.179 169.828H272.716C273.563 169.829 274.376 170.167 274.974 170.765C275.573 171.364 275.91 172.176 275.911 173.024V190.282C275.91 191.13 275.573 191.942 274.974 192.54C274.376 193.139 273.563 193.476 272.716 193.478Z" fill="#37C2CC"/>
<path d="M314.264 193.476H295.728C294.88 193.475 294.068 193.138 293.469 192.539C292.87 191.941 292.533 191.128 292.532 190.281V151.29C292.533 150.444 292.87 149.631 293.469 149.032C294.068 148.433 294.88 148.096 295.728 148.095H314.264C315.112 148.096 315.924 148.433 316.522 149.032C317.121 149.631 317.458 150.444 317.459 151.29V190.281C317.458 191.128 317.121 191.941 316.522 192.539C315.924 193.138 315.112 193.475 314.264 193.476Z" fill="#37C2CC"/>
<path d="M356.449 193.476H337.914C337.066 193.476 336.254 193.139 335.655 192.539C335.055 191.94 334.718 191.129 334.717 190.281V129.559C334.718 128.712 335.055 127.899 335.655 127.3C336.254 126.701 337.066 126.364 337.914 126.363H356.449C357.296 126.364 358.109 126.701 358.708 127.3C359.307 127.899 359.644 128.712 359.645 129.559V190.281C359.644 191.129 359.307 191.94 358.708 192.539C358.109 193.139 357.296 193.476 356.449 193.476Z" fill="#37C2CC"/>
<path d="M399.913 193.479H381.376C380.529 193.477 379.717 193.14 379.117 192.54C378.518 191.942 378.181 191.13 378.18 190.282V108.467C378.181 107.619 378.518 106.807 379.117 106.209C379.717 105.609 380.529 105.272 381.376 105.271H399.913C400.76 105.272 401.573 105.609 402.172 106.209C402.771 106.807 403.108 107.619 403.109 108.467V190.282C403.108 191.13 402.771 191.942 402.172 192.54C401.573 193.14 400.76 193.477 399.913 193.479Z" fill="#37C2CC"/>
<path d="M426.12 193.477H236.921C236.752 193.477 236.59 193.411 236.47 193.291C236.35 193.171 236.282 193.008 236.282 192.838C236.282 192.669 236.35 192.506 236.47 192.387C236.59 192.267 236.752 192.199 236.921 192.199H426.12C426.289 192.199 426.452 192.267 426.571 192.387C426.691 192.506 426.759 192.669 426.759 192.838C426.759 193.008 426.691 193.171 426.571 193.291C426.452 193.411 426.289 193.477 426.12 193.477Z" fill="#3F3D56"/>
<path d="M509.243 312.714C509.761 311.93 510.445 311.269 511.246 310.778C512.047 310.287 512.945 309.977 513.879 309.87C514.813 309.764 515.759 309.864 516.649 310.163C517.54 310.462 518.354 310.952 519.036 311.6L539.334 301.124L538.071 312.926L518.989 321.065C517.826 322.136 516.31 322.744 514.728 322.772C513.146 322.801 511.609 322.248 510.408 321.218C509.206 320.189 508.424 318.755 508.209 317.187C507.995 315.62 508.363 314.029 509.243 312.714Z" fill="#FFB8B8"/>
<path d="M526.709 317.115C526.248 316.754 525.908 316.261 525.735 315.702L524.121 310.487C523.947 309.921 523.951 309.317 524.132 308.754C524.314 308.191 524.664 307.698 525.135 307.341L541.586 294.915L559.403 261.862C560.149 260.9 561.078 260.096 562.135 259.493C563.193 258.891 564.358 258.503 565.565 258.35C566.772 258.199 567.997 258.286 569.172 258.608C570.345 258.929 571.443 259.479 572.405 260.225C573.366 260.971 574.171 261.9 574.773 262.958C575.375 264.015 575.764 265.181 575.916 266.388C576.067 267.595 575.98 268.821 575.658 269.994C575.337 271.167 574.787 272.267 574.04 273.227L563.904 294.621C560.828 301.115 555.499 306.269 548.906 309.128L529.627 317.49C529.256 317.65 528.856 317.732 528.452 317.728C528.048 317.723 527.649 317.634 527.282 317.465C527.078 317.372 526.885 317.254 526.709 317.115Z" fill="#3F3D56"/>
<path d="M574.488 248.068C583.157 248.068 590.186 241.04 590.186 232.369C590.186 223.698 583.157 216.67 574.488 216.67C565.817 216.67 558.788 223.698 558.788 232.369C558.788 241.04 565.817 248.068 574.488 248.068Z" fill="#FFB8B8"/>
<path d="M568.119 438.311H560.284L556.557 408.084L568.122 408.086L568.119 438.311Z" fill="#FFB8B8"/>
<path d="M554.685 436.07H569.799V445.585H545.17C545.17 444.337 545.417 443.099 545.895 441.944C546.373 440.79 547.074 439.741 547.958 438.858C548.841 437.974 549.89 437.273 551.044 436.795C552.199 436.317 553.437 436.07 554.685 436.07Z" fill="#2F2E41"/>
<path d="M593.687 438.312L585.852 438.311L582.125 408.084L593.69 408.086L593.687 438.312Z" fill="#FFB8B8"/>
<path d="M580.253 436.072H595.366V445.588H570.739C570.737 444.339 570.984 443.101 571.462 441.947C571.941 440.792 572.641 439.743 573.525 438.86C574.408 437.976 575.458 437.275 576.612 436.797C577.766 436.319 579.004 436.072 580.253 436.072Z" fill="#2F2E41"/>
<path d="M594.259 430.641H585.077C584.444 430.64 583.83 430.431 583.328 430.046C582.826 429.661 582.465 429.123 582.3 428.512L569.082 379.486C569.061 379.41 569.013 379.344 568.946 379.301C568.879 379.258 568.8 379.241 568.721 379.254C568.643 379.267 568.573 379.308 568.523 379.371C568.474 379.432 568.449 379.51 568.454 379.589L571.124 426.085C571.148 426.495 571.083 426.908 570.934 427.291C570.784 427.675 570.555 428.023 570.259 428.31C569.965 428.597 569.612 428.818 569.224 428.956C568.837 429.095 568.424 429.149 568.013 429.115L557.692 428.255C557.031 428.199 556.409 427.916 555.933 427.453C555.456 426.992 555.153 426.381 555.074 425.721L545.671 328.089L549.309 330.273L583.396 324.485L597.111 427.385C597.165 427.791 597.132 428.204 597.013 428.596C596.895 428.988 596.694 429.351 596.424 429.659C596.154 429.968 595.821 430.215 595.448 430.384C595.075 430.554 594.67 430.641 594.259 430.641Z" fill="#2F2E41"/>
<path d="M557.071 338.395C553.311 338.364 549.627 337.328 546.403 335.392C545.906 335.098 545.51 334.66 545.266 334.137C545.023 333.614 544.943 333.029 545.037 332.459C546.236 325.117 552.505 287.456 558.21 266.924C560.533 258.562 565.67 254.058 573.478 253.538C584.899 252.788 595.05 261.724 596.107 273.48C597.972 294.221 590.397 323.688 587.054 335.394C586.924 335.847 586.686 336.26 586.358 336.599C586.032 336.937 585.628 337.19 585.181 337.335C584.733 337.482 584.257 337.514 583.793 337.433C583.33 337.352 582.894 337.158 582.523 336.869L575.709 331.568C575.289 331.248 574.771 331.084 574.244 331.106C573.716 331.128 573.214 331.334 572.823 331.688C567.079 336.812 561.622 338.395 557.071 338.395Z" fill="#3F3D56"/>
<path opacity="0.2" d="M579.609 283.628L585.361 307.918L577.051 328.371L582.804 308.557L579.609 283.628Z" fill="black"/>
<path d="M583.446 245.279C584.843 245.304 586.23 245.053 587.529 244.54C588.1 244.319 588.693 244.138 589.264 243.918C594.302 241.971 597.621 236.607 597.74 231.207C597.859 225.808 595.063 220.567 590.911 217.113C586.759 213.659 581.382 211.886 575.996 211.476C570.196 211.034 563.663 212.504 560.422 217.335C559.559 218.621 558.956 220.181 559.467 221.733C559.62 222.202 559.894 222.623 560.26 222.952C561.708 224.24 563.15 223.271 564.627 223.187C566.654 223.069 568.477 224.711 569.131 226.634C569.786 228.557 569.497 230.674 568.968 232.636C568.566 233.817 568.311 235.042 568.213 236.286C568.17 236.909 568.287 237.533 568.553 238.098C568.819 238.664 569.225 239.152 569.733 239.517C571 240.283 572.664 239.84 573.932 239.074C575.201 238.31 576.297 237.246 577.667 236.684C579.036 236.121 580.877 236.245 581.674 237.494C581.928 237.948 582.099 238.444 582.181 238.957C582.895 242.213 582.731 242.021 583.446 245.279Z" fill="#2F2E41"/>
<path d="M559.112 416.383L460.808 382.148C459.122 381.559 457.738 380.324 456.96 378.716C456.183 377.107 456.075 375.255 456.661 373.566L482.206 300.215C482.638 298.98 483.542 297.966 484.72 297.395C485.899 296.826 487.256 296.747 488.493 297.176L590.119 332.569C591.376 333.008 592.408 333.929 592.987 335.127C593.567 336.326 593.648 337.706 593.211 338.964L567.693 412.235C567.104 413.922 565.869 415.306 564.261 416.084C562.652 416.861 560.8 416.969 559.112 416.383Z" fill="#E6E6E6"/>
<path d="M469.197 377.932L555.157 407.868C556.794 408.439 558.59 408.335 560.151 407.58C561.711 406.826 562.908 405.482 563.478 403.846L584.106 344.615C584.675 342.978 584.572 341.182 583.818 339.621C583.063 338.06 581.72 336.864 580.083 336.293L494.124 306.358C492.487 305.787 490.69 305.891 489.13 306.645C487.569 307.4 486.372 308.742 485.802 310.38L465.175 369.611C464.893 370.421 464.773 371.279 464.822 372.136C464.871 372.993 465.089 373.831 465.462 374.604C465.836 375.377 466.358 376.069 466.999 376.639C467.639 377.211 468.386 377.649 469.197 377.932Z" fill="white"/>
<path d="M490.785 336.318L486.528 334.835C486.297 334.754 486.107 334.586 486.001 334.365C485.895 334.145 485.88 333.892 485.96 333.66L487.443 329.404C487.523 329.173 487.692 328.984 487.912 328.877C488.133 328.771 488.386 328.756 488.617 328.837L492.874 330.318C493.105 330.4 493.294 330.568 493.401 330.789C493.507 331.008 493.522 331.262 493.441 331.493L491.959 335.75C491.879 335.981 491.709 336.17 491.49 336.276C491.269 336.382 491.016 336.397 490.785 336.318Z" fill="#37C2CC"/>
<path d="M486.942 347.348L482.685 345.865C482.454 345.784 482.264 345.616 482.158 345.395C482.052 345.176 482.038 344.923 482.117 344.691L483.6 340.434C483.681 340.204 483.849 340.014 484.07 339.908C484.29 339.801 484.543 339.786 484.775 339.866L489.031 341.349C489.262 341.43 489.451 341.598 489.558 341.819C489.664 342.038 489.679 342.292 489.598 342.523L488.117 346.781C488.035 347.011 487.866 347.2 487.646 347.306C487.427 347.413 487.173 347.428 486.942 347.348Z" fill="#3F3D56"/>
<path d="M483.102 358.378L478.845 356.896C478.614 356.815 478.424 356.646 478.318 356.426C478.212 356.206 478.197 355.953 478.277 355.722L479.76 351.465C479.84 351.234 480.009 351.044 480.229 350.938C480.45 350.832 480.703 350.817 480.934 350.897L485.191 352.38C485.422 352.46 485.611 352.629 485.718 352.849C485.824 353.07 485.839 353.323 485.758 353.554L484.276 357.811C484.195 358.042 484.026 358.231 483.806 358.338C483.586 358.444 483.333 358.459 483.102 358.378Z" fill="#CCCCCC"/>
<path d="M519.391 343.893L498.88 336.75C498.764 336.711 498.659 336.648 498.568 336.568C498.478 336.488 498.404 336.39 498.351 336.281C498.298 336.172 498.267 336.054 498.26 335.932C498.252 335.811 498.269 335.69 498.309 335.576C498.35 335.461 498.411 335.355 498.492 335.265C498.573 335.174 498.671 335.101 498.78 335.048C498.889 334.995 499.008 334.965 499.129 334.958C499.25 334.951 499.371 334.968 499.486 335.009L519.997 342.152C520.112 342.192 520.218 342.254 520.308 342.334C520.399 342.415 520.473 342.512 520.525 342.621C520.578 342.731 520.61 342.849 520.617 342.97C520.624 343.091 520.607 343.213 520.567 343.327C520.528 343.442 520.465 343.547 520.384 343.638C520.304 343.728 520.205 343.802 520.096 343.854C519.987 343.907 519.868 343.938 519.747 343.944C519.627 343.951 519.506 343.934 519.391 343.893Z" fill="#CCCCCC"/>
<path d="M515.548 354.923L495.036 347.78C494.805 347.7 494.616 347.53 494.509 347.311C494.403 347.09 494.389 346.837 494.469 346.606C494.55 346.375 494.718 346.185 494.939 346.079C495.159 345.972 495.412 345.958 495.644 346.039L516.155 353.182C516.27 353.221 516.375 353.283 516.466 353.363C516.556 353.444 516.63 353.541 516.683 353.65C516.736 353.76 516.767 353.878 516.774 353.999C516.781 354.12 516.764 354.242 516.724 354.356C516.684 354.471 516.622 354.576 516.541 354.667C516.46 354.757 516.363 354.831 516.254 354.883C516.145 354.936 516.026 354.967 515.905 354.973C515.784 354.981 515.662 354.964 515.548 354.923Z" fill="#CCCCCC"/>
<path d="M511.707 365.954L491.196 358.81C490.965 358.73 490.776 358.561 490.669 358.341C490.563 358.12 490.548 357.867 490.629 357.636C490.709 357.405 490.878 357.216 491.098 357.109C491.319 357.003 491.572 356.988 491.803 357.069L512.314 364.212C512.545 364.293 512.735 364.461 512.842 364.682C512.948 364.902 512.962 365.155 512.882 365.387C512.801 365.617 512.633 365.806 512.412 365.913C512.192 366.019 511.939 366.034 511.707 365.954Z" fill="#CCCCCC"/>
<path d="M566.293 371.929C566.442 371.57 566.583 371.206 566.713 370.835C568.399 365.994 568.093 360.681 565.862 356.066C563.63 351.451 559.658 347.911 554.817 346.225L548.075 365.584L566.293 371.929Z" fill="#37C2CC"/>
<path d="M546.113 366.761L552.855 347.402C549.292 346.161 545.443 345.99 541.784 346.91C538.125 347.83 534.816 349.801 532.264 352.579C529.711 355.357 528.028 358.822 527.421 362.546C526.814 366.27 527.31 370.09 528.848 373.535C530.386 376.98 532.9 379.899 536.077 381.933C539.255 383.967 542.959 385.027 546.731 384.981C550.504 384.936 554.18 383.787 557.308 381.676C560.436 379.567 562.877 376.587 564.331 373.105L546.113 366.761Z" fill="#3F3D56"/>
<path d="M570.25 338.992C570.174 338.056 570.304 337.114 570.631 336.233C570.958 335.352 571.474 334.554 572.143 333.894C572.812 333.234 573.618 332.73 574.504 332.415C575.389 332.1 576.332 331.983 577.268 332.073L586.775 311.303L593.065 321.37L583.072 339.549C582.818 341.11 582 342.524 580.772 343.522C579.546 344.521 577.995 345.034 576.414 344.966C574.833 344.897 573.333 344.252 572.197 343.15C571.061 342.049 570.369 340.57 570.25 338.992Z" fill="#FFB8B8"/>
<path d="M586.708 331.678C586.123 331.678 585.552 331.5 585.07 331.167L580.581 328.06C580.096 327.721 579.726 327.243 579.522 326.689C579.317 326.135 579.288 325.53 579.438 324.958L584.714 305.028L578.337 268.025C578.329 266.807 578.561 265.599 579.021 264.472C579.48 263.344 580.158 262.318 581.014 261.453C581.871 260.587 582.889 259.898 584.012 259.426C585.134 258.954 586.339 258.708 587.557 258.703C588.775 258.697 589.981 258.931 591.109 259.392C592.236 259.853 593.261 260.532 594.126 261.389C594.991 262.247 595.678 263.265 596.148 264.389C596.619 265.512 596.863 266.717 596.868 267.934L602.094 291.024C603.682 298.031 602.669 305.377 599.246 311.695L589.236 330.172C589.043 330.527 588.778 330.838 588.457 331.084C588.137 331.33 587.768 331.505 587.375 331.6C587.157 331.652 586.933 331.678 586.708 331.678Z" fill="#3F3D56"/>
<path d="M635.354 445.945H513.909C513.739 445.945 513.576 445.877 513.456 445.757C513.337 445.637 513.27 445.475 513.27 445.306C513.27 445.136 513.337 444.974 513.456 444.853C513.576 444.733 513.739 444.666 513.909 444.666H635.354C635.522 444.666 635.685 444.733 635.805 444.853C635.925 444.974 635.993 445.136 635.993 445.306C635.993 445.475 635.925 445.637 635.805 445.757C635.685 445.877 635.522 445.945 635.354 445.945Z" fill="#CCCCCC"/>
<path d="M313.552 437.992L321.389 437.991L325.117 407.765H313.551L313.552 437.992Z" fill="#A0616A"/>
<path d="M311.553 435.434L326.985 435.433H326.986C328.278 435.433 329.557 435.687 330.749 436.181C331.943 436.675 333.027 437.4 333.94 438.313C334.854 439.227 335.578 440.311 336.073 441.503C336.567 442.697 336.821 443.976 336.821 445.267V445.588H311.553V435.434Z" fill="#2F2E41"/>
<path d="M282.231 437.992L290.067 437.991L293.795 407.765H282.23L282.231 437.992Z" fill="#A0616A"/>
<path d="M280.232 435.434L295.664 435.433C296.955 435.433 298.236 435.687 299.428 436.181C300.622 436.675 301.706 437.4 302.62 438.313C303.532 439.227 304.257 440.311 304.751 441.503C305.245 442.697 305.5 443.976 305.5 445.267V445.588H280.233L280.232 435.434Z" fill="#2F2E41"/>
<path d="M315.116 228.735C323.786 228.735 330.815 221.707 330.815 213.037C330.815 204.367 323.786 197.338 315.116 197.338C306.446 197.338 299.417 204.367 299.417 213.037C299.417 221.707 306.446 228.735 315.116 228.735Z" fill="#A0616A"/>
<path d="M325.673 431.47H311.131C310.75 431.47 310.374 431.394 310.023 431.247C309.671 431.101 309.353 430.886 309.085 430.614C308.817 430.344 308.607 430.023 308.463 429.67C308.321 429.317 308.25 428.94 308.255 428.558L309.099 359.507C309.103 359.262 309.011 359.025 308.845 358.844C308.679 358.664 308.45 358.555 308.205 358.538C307.961 358.522 307.718 358.6 307.53 358.756C307.341 358.912 307.219 359.136 307.189 359.379L298.726 428.941C298.641 429.638 298.304 430.28 297.778 430.746C297.251 431.212 296.574 431.47 295.871 431.47H281.189C280.793 431.47 280.401 431.388 280.037 431.229C279.673 431.07 279.347 430.838 279.078 430.546C278.808 430.255 278.602 429.912 278.472 429.537C278.342 429.162 278.291 428.765 278.322 428.369L288.016 304.32L288.28 304.292L334.703 299.278L328.546 428.73C328.512 429.468 328.194 430.166 327.659 430.676C327.123 431.187 326.412 431.471 325.673 431.47Z" fill="#2F2E41"/>
<path d="M288.581 311.934C287.835 311.933 287.12 311.641 286.584 311.121C286.05 310.602 285.738 309.894 285.715 309.148C285.462 301.305 285.027 274.165 290.076 254.24C291.453 248.797 294.546 243.941 298.896 240.391C303.246 236.841 308.623 234.786 314.232 234.528C319.753 234.226 325.228 235.671 329.881 238.657C334.534 241.643 338.13 246.017 340.157 251.161C348.642 272.704 356.658 299.258 346.664 303.422C333.564 308.88 299.029 311.313 288.757 311.929C288.698 311.933 288.64 311.934 288.581 311.934Z" fill="#3F3D56"/>
<path d="M348.582 197.169C348.829 197.423 349.096 197.657 349.38 197.868L347.731 229.524L340.876 233.034L344.821 244.071L357.559 239.037C358.589 238.631 359.458 237.901 360.038 236.959C360.616 236.015 360.874 234.911 360.772 233.808L357.434 197.9C358.526 197.085 359.344 195.957 359.78 194.666C360.216 193.375 360.248 191.982 359.872 190.672C359.496 189.363 358.731 188.198 357.677 187.334C356.623 186.47 355.332 185.947 353.974 185.835C352.616 185.724 351.257 186.027 350.075 186.707C348.894 187.387 347.949 188.41 347.364 189.64C346.778 190.871 346.581 192.25 346.799 193.595C347.017 194.94 347.639 196.187 348.582 197.169Z" fill="#A0616A"/>
<path d="M347.862 230.705L352.684 244.408C352.821 244.798 352.873 245.213 352.835 245.624C352.798 246.036 352.672 246.435 352.466 246.793C352.26 247.151 351.98 247.462 351.644 247.703C351.308 247.942 350.924 248.108 350.518 248.186L336.299 250.94C334.3 251.631 332.109 251.501 330.206 250.578C328.303 249.656 326.842 248.016 326.147 246.019C325.45 244.022 325.574 241.83 326.491 239.926C327.409 238.02 329.045 236.556 331.04 235.854L343.807 229.115C344.173 228.922 344.576 228.811 344.988 228.787C345.4 228.764 345.814 228.831 346.198 228.981C346.583 229.132 346.931 229.364 347.218 229.662C347.505 229.959 347.725 230.315 347.862 230.705Z" fill="#3F3D56"/>
<path d="M280.583 197.169C280.336 197.423 280.07 197.657 279.786 197.868L281.434 229.524L288.289 233.034L284.345 244.071L271.606 239.037C270.577 238.631 269.707 237.901 269.128 236.959C268.549 236.015 268.291 234.911 268.393 233.808L271.731 197.9C270.639 197.085 269.821 195.957 269.385 194.666C268.95 193.375 268.918 191.982 269.294 190.672C269.669 189.363 270.435 188.198 271.488 187.334C272.542 186.47 273.834 185.947 275.192 185.835C276.55 185.724 277.908 186.027 279.09 186.707C280.271 187.387 281.217 188.41 281.802 189.64C282.387 190.871 282.584 192.25 282.367 193.595C282.148 194.94 281.526 196.187 280.583 197.169Z" fill="#A0616A"/>
<path d="M282.969 228.979C283.354 228.829 283.766 228.762 284.178 228.785C284.592 228.809 284.995 228.921 285.36 229.114L298.127 235.852C300.121 236.554 301.757 238.018 302.675 239.924C303.592 241.829 303.716 244.02 303.02 246.017C302.324 248.014 300.864 249.654 298.961 250.576C297.058 251.5 294.866 251.629 292.868 250.938L278.648 248.185C278.242 248.107 277.859 247.941 277.523 247.701C277.187 247.46 276.906 247.15 276.7 246.791C276.495 246.433 276.368 246.034 276.331 245.623C276.294 245.211 276.345 244.796 276.483 244.406L281.305 230.703C281.441 230.313 281.661 229.957 281.948 229.66C282.235 229.362 282.583 229.13 282.969 228.979Z" fill="#3F3D56"/>
<path d="M321.214 215.714C321.132 213.71 321.635 211.727 322.661 210.006C323.687 208.284 325.192 206.899 326.993 206.018C331.765 203.555 334.762 198.3 333.449 193.502C331.768 187.36 323.408 183.377 316.635 185.489C314.802 186.14 313.034 186.963 311.355 187.944L306.929 190.316C305.04 191.262 303.217 192.338 301.475 193.536C298.866 195.459 296.822 198.047 295.554 201.03C294.287 204.013 293.844 207.282 294.271 210.493C295.143 216.738 299.232 222.464 304.829 226.384C306.97 227.984 309.442 229.083 312.064 229.6C314.747 230.042 317.734 229.54 319.695 227.872C322.761 225.264 322.444 220.897 321.452 217.251C321.322 216.747 321.241 216.232 321.214 215.714Z" fill="#2F2E41"/>
<path d="M374.568 445.945H253.123C252.953 445.945 252.791 445.877 252.672 445.757C252.552 445.637 252.484 445.475 252.484 445.306C252.484 445.136 252.552 444.974 252.672 444.853C252.791 444.733 252.953 444.666 253.123 444.666H374.568C374.737 444.666 374.901 444.733 375.02 444.853C375.14 444.974 375.207 445.136 375.207 445.306C375.207 445.475 375.14 445.637 375.02 445.757C374.901 445.877 374.737 445.945 374.568 445.945Z" fill="#CCCCCC"/>
<path d="M176.364 329.341L76.155 370.451C74.4341 371.155 72.5042 371.147 70.7888 370.43C69.0734 369.712 67.7127 368.344 67.0051 366.625L36.3295 291.852C35.8139 290.59 35.8194 289.176 36.345 287.92C36.8705 286.663 37.873 285.667 39.1327 285.148L142.73 242.648C144.012 242.123 145.451 242.129 146.729 242.664C148.007 243.198 149.022 244.218 149.548 245.5L180.19 320.191C180.894 321.912 180.887 323.842 180.169 325.557C179.452 327.272 178.084 328.633 176.364 329.341Z" fill="#E6E6E6"/>
<path d="M79.7834 361.381L167.409 325.433C169.078 324.748 170.407 323.428 171.102 321.765C171.798 320.101 171.805 318.228 171.12 316.56L146.35 256.181C146.01 255.355 145.512 254.603 144.882 253.97C144.254 253.337 143.506 252.833 142.682 252.489C141.857 252.144 140.974 251.965 140.081 251.962C139.188 251.959 138.303 252.131 137.476 252.47L49.851 288.419C49.0247 288.758 48.2734 289.256 47.6398 289.886C47.0061 290.515 46.5026 291.262 46.1581 292.087C45.8135 292.911 45.6347 293.795 45.6316 294.687C45.6286 295.581 45.8015 296.466 46.1404 297.292L70.9108 357.671C71.2497 358.497 71.7481 359.248 72.3774 359.882C73.0068 360.515 73.7547 361.018 74.5786 361.363C75.4025 361.708 76.2863 361.887 77.1793 361.89C78.0723 361.893 78.9573 361.72 79.7834 361.381Z" fill="white"/>
<path d="M145.866 272.647L144.578 273.176L144.666 273.39L145.954 272.862L145.866 272.647Z" fill="#E6E6E6"/>
<path d="M142.064 274.459L139.461 275.526L139.373 275.312L141.976 274.245L142.064 274.459ZM136.858 276.594L134.256 277.662L134.168 277.447L136.77 276.379L136.858 276.594ZM131.653 278.729L129.051 279.798L128.963 279.583L131.565 278.515L131.653 278.729ZM126.448 280.865L123.845 281.933L123.757 281.718L126.36 280.65L126.448 280.865ZM121.243 283L118.641 284.068L118.553 283.853L121.155 282.786L121.243 283ZM116.037 285.136L113.435 286.203L113.347 285.989L115.949 284.921L116.037 285.136ZM110.833 287.272L108.23 288.339L108.142 288.124L110.745 287.056L110.833 287.272ZM105.627 289.406L103.025 290.475L102.937 290.26L105.539 289.192L105.627 289.406ZM100.422 291.542L97.8196 292.61L97.7315 292.396L100.334 291.327L100.422 291.542ZM95.2169 293.677L92.6144 294.746L92.5263 294.53L95.1289 293.463L95.2169 293.677ZM90.0118 295.813L87.4093 296.88L87.3212 296.666L89.9237 295.598L90.0118 295.813ZM84.8066 297.949L82.204 299.016L82.116 298.801L84.7185 297.734L84.8066 297.949ZM79.6014 300.084L76.9988 301.151L76.9107 300.937L79.5134 299.869L79.6014 300.084ZM74.3963 302.219L71.7936 303.287L71.7055 303.072L74.3082 302.004L74.3963 302.219ZM69.191 304.354L66.5885 305.423L66.5004 305.207L69.103 304.14L69.191 304.354ZM63.9859 306.49L61.3832 307.557L61.2952 307.343L63.8978 306.275L63.9859 306.49Z" fill="#E6E6E6"/>
<path d="M58.6914 308.411L57.4031 308.94L57.4912 309.155L58.7795 308.626L58.6914 308.411Z" fill="#E6E6E6"/>
<path d="M111.76 309.97L110.472 310.499L110.56 310.713L111.848 310.185L111.76 309.97Z" fill="#E6E6E6"/>
<path d="M107.995 311.764L105.431 312.817L105.343 312.602L107.907 311.55L107.995 311.764ZM102.867 313.868L100.303 314.92L100.215 314.706L102.779 313.654L102.867 313.868ZM97.7394 315.973L95.1754 317.024L95.0873 316.809L97.6513 315.757L97.7394 315.973ZM92.6115 318.076L90.0476 319.128L89.9595 318.913L92.5235 317.861L92.6115 318.076ZM87.4837 320.18L84.9197 321.231L84.8316 321.017L87.3956 319.965L87.4837 320.18ZM82.3558 322.284L79.7918 323.335L79.7037 323.121L82.2677 322.068L82.3558 322.284ZM77.2279 324.387L74.6639 325.439L74.5758 325.224L77.1398 324.172L77.2279 324.387ZM72.1001 326.491L69.5361 327.542L69.448 327.328L72.012 326.277L72.1001 326.491Z" fill="#E6E6E6"/>
<path d="M66.8834 328.379L65.5952 328.907L65.6833 329.122L66.9715 328.594L66.8834 328.379Z" fill="#E6E6E6"/>
<path d="M90.5134 329.723L89.2251 330.251L89.3132 330.466L90.6015 329.937L90.5134 329.723Z" fill="#E6E6E6"/>
<path d="M86.6755 331.549L84.0377 332.63L83.9496 332.416L86.5875 331.334L86.6755 331.549ZM81.3997 333.712L78.7619 334.795L78.6738 334.58L81.3116 333.498L81.3997 333.712ZM76.1239 335.877L73.486 336.959L73.3979 336.745L76.0358 335.663L76.1239 335.877Z" fill="#E6E6E6"/>
<path d="M70.759 337.827L69.4707 338.356L69.5588 338.571L70.8471 338.042L70.759 337.827Z" fill="#E6E6E6"/>
<path d="M97.128 345.846L95.8398 346.374L95.9279 346.589L97.2161 346.06L97.128 345.846Z" fill="#E6E6E6"/>
<path d="M93.2901 347.671L90.6522 348.753L90.5641 348.539L93.2021 347.457L93.2901 347.671ZM88.0142 349.836L85.3764 350.918L85.2883 350.704L87.9262 349.621L88.0142 349.836ZM82.7385 352L80.1005 353.082L80.0125 352.868L82.6504 351.786L82.7385 352Z" fill="#E6E6E6"/>
<path d="M77.3735 353.948L76.0852 354.477L76.1733 354.691L77.4616 354.163L77.3735 353.948Z" fill="#E6E6E6"/>
<path d="M83.5051 351.878L157.762 321.415C159.559 320.675 160.99 319.252 161.739 317.46C162.489 315.666 162.497 313.649 161.762 311.85L146.759 275.279L146.614 275.344L128.39 318.915L114.876 313.264C114.626 313.159 114.355 313.114 114.086 313.13C113.816 313.147 113.553 313.226 113.319 313.362C112.967 313.574 112.694 313.895 112.544 314.278L102.994 337.11L93.1121 332.979C92.8988 332.89 92.6701 332.844 92.439 332.843C92.2078 332.842 91.9788 332.887 91.765 332.975C91.5511 333.063 91.3567 333.191 91.1927 333.354C91.0287 333.517 90.8985 333.711 90.8093 333.924C90.746 334.079 84.6532 349.028 83.5051 351.878Z" fill="#37C2CC"/>
<path d="M83.276 352.221L83.062 352.132L90.7032 333.859C90.9054 333.376 91.2908 332.995 91.7746 332.795C92.2585 332.597 92.8014 332.599 93.2841 332.801L102.971 336.851L112.466 314.144C112.669 313.662 113.054 313.279 113.538 313.081C114.021 312.883 114.565 312.884 115.047 313.085L128.367 318.655L146.683 274.857L146.897 274.946L128.492 318.96L114.958 313.299C114.747 313.211 114.521 313.166 114.293 313.165C114.064 313.164 113.837 313.208 113.626 313.295C113.414 313.382 113.222 313.509 113.06 313.67C112.898 313.831 112.768 314.023 112.68 314.234L103.095 337.155L93.1945 333.015C92.7686 332.837 92.2896 332.836 91.8628 333.011C91.4358 333.186 91.0958 333.524 90.9172 333.949L83.276 352.221Z" fill="#3F3D56"/>
<path d="M90.558 331.455C91.4551 331.455 92.1825 330.727 92.1825 329.83C92.1825 328.933 91.4551 328.206 90.558 328.206C89.6607 328.206 88.9333 328.933 88.9333 329.83C88.9333 330.727 89.6607 331.455 90.558 331.455Z" fill="#3F3D56"/>
<path d="M111.803 311.7C112.701 311.7 113.428 310.973 113.428 310.076C113.428 309.178 112.701 308.451 111.803 308.451C110.906 308.451 110.179 309.178 110.179 310.076C110.179 310.973 110.906 311.7 111.803 311.7Z" fill="#3F3D56"/>
<path d="M144.886 274.324C145.783 274.324 146.511 273.596 146.511 272.699C146.511 271.802 145.783 271.074 144.886 271.074C143.989 271.074 143.261 271.802 143.261 272.699C143.261 273.596 143.989 274.324 144.886 274.324Z" fill="#3F3D56"/>
<path d="M53.9558 327.986C54.8003 327.566 55.5425 326.966 56.1298 326.228C56.7172 325.489 57.1357 324.632 57.3556 323.714C57.5757 322.797 57.5918 321.843 57.4031 320.918C57.2144 319.994 56.8252 319.122 56.2631 318.365L61.0881 271.191H50.6609L46.8265 317.254C45.6163 318.282 44.8256 319.719 44.604 321.292C44.3824 322.865 44.7453 324.464 45.6241 325.787C46.503 327.11 47.8364 328.064 49.372 328.47C50.9076 328.875 52.5386 328.703 53.9558 327.986Z" fill="#FFB8B8"/>
<path d="M63.5287 245.156C71.6762 245.156 78.281 238.551 78.281 230.404C78.281 222.256 71.6762 215.651 63.5287 215.651C55.3812 215.651 48.7764 222.256 48.7764 230.404C48.7764 238.551 55.3812 245.156 63.5287 245.156Z" fill="#FFB8B8"/>
<path d="M66.3064 298.663C65.7158 298.663 65.1417 298.469 64.672 298.111C64.2023 297.753 63.863 297.251 63.7062 296.682C62.5242 292.387 59.4491 285.127 54.5667 275.101C53.4649 272.835 52.8548 270.361 52.7765 267.842C52.698 265.323 53.153 262.816 54.1116 260.486C55.0702 258.155 56.5107 256.053 58.3386 254.319C60.1665 252.584 62.3405 251.256 64.718 250.42C66.9711 249.624 69.3608 249.289 71.7457 249.434C74.1308 249.578 76.4626 250.199 78.6033 251.26C80.7442 252.321 82.6503 253.801 84.209 255.612C85.7678 257.423 86.9476 259.528 87.6785 261.802C91.4631 273.668 91.2803 286.377 91.026 291.291C90.9945 291.882 90.7699 292.447 90.3865 292.899C90.0031 293.351 89.4821 293.664 88.9034 293.793L66.886 298.601C66.6957 298.642 66.5013 298.663 66.3064 298.663Z" fill="#FF6584"/>
<path d="M87.6282 438.751H94.9917L98.495 410.348L87.627 410.349L87.6282 438.751Z" fill="#FFB8B8"/>
<path d="M109.193 445.588L86.0497 445.589L86.0493 436.647H100.251C101.425 436.647 102.588 436.878 103.673 437.327C104.757 437.775 105.743 438.435 106.574 439.265C107.404 440.095 108.063 441.08 108.513 442.166C108.962 443.25 109.193 444.413 109.193 445.588Z" fill="#2F2E41"/>
<path d="M13.9939 429.207L20.4471 432.754L37.2013 409.553L27.6782 404.316L13.9939 429.207Z" fill="#FFB8B8"/>
<path d="M29.5974 445.588L9.31714 434.438L13.6249 426.602L26.0697 433.444C28.1478 434.587 29.687 436.508 30.3485 438.786C31.0101 441.063 30.74 443.509 29.5974 445.588Z" fill="#2F2E41"/>
<path d="M87.2827 422.985C86.6265 422.985 85.9929 422.745 85.5002 422.311C85.0074 421.878 84.6892 421.28 84.6049 420.629L75.3957 349.665C75.355 349.351 75.2161 349.058 74.9989 348.828C74.7818 348.598 74.4974 348.442 74.1865 348.382C73.8755 348.324 73.5538 348.364 73.2674 348.499C72.981 348.634 72.7444 348.855 72.5915 349.133L34.2115 418.766C33.8948 419.334 33.3846 419.77 32.7736 419.994C32.1626 420.218 31.4916 420.216 30.8823 419.987L22.5165 416.8C22.18 416.671 21.8726 416.477 21.6122 416.229C21.3517 415.98 21.1437 415.682 21 415.352C20.8565 415.022 20.7803 414.666 20.7761 414.307C20.7718 413.946 20.8396 413.589 20.9753 413.255L47.5622 347.944C47.6296 347.777 47.6752 347.603 47.698 347.426C51.299 319.554 60.4614 305.38 63.1836 301.7C63.3824 301.43 63.5132 301.116 63.5651 300.784C63.6169 300.452 63.5883 300.113 63.4814 299.794L63.1072 298.672C62.9577 298.226 62.9271 297.749 63.0183 297.288C63.1095 296.827 63.3195 296.398 63.6274 296.043C73.4366 284.87 90.5337 290.967 90.7053 291.029L90.791 291.061L90.8446 291.134C110.016 317.426 102.927 402.821 101.312 419.672C101.252 420.305 100.969 420.896 100.515 421.342C100.06 421.787 99.4632 422.057 98.8288 422.104L87.4926 422.977C87.4221 422.982 87.3522 422.985 87.2827 422.985Z" fill="#2F2E41"/>
<path d="M120.88 247.542C120.806 247.866 120.758 248.196 120.736 248.527L94.9344 263.412L88.663 259.801L81.9771 268.555L92.4585 276.025C93.3052 276.628 94.3249 276.941 95.3644 276.916C96.404 276.89 97.4071 276.529 98.2235 275.884L124.83 254.895C126.031 255.339 127.338 255.408 128.579 255.091C129.819 254.774 130.934 254.087 131.775 253.121C132.615 252.156 133.142 250.957 133.284 249.684C133.427 248.412 133.179 247.126 132.573 245.998C131.967 244.87 131.032 243.954 129.892 243.37C128.753 242.787 127.463 242.563 126.193 242.73C124.924 242.899 123.736 243.449 122.786 244.308C121.837 245.167 121.173 246.295 120.88 247.542Z" fill="#FFB8B8"/>
<path d="M94.0712 264.115L85.732 274.923C85.4948 275.23 85.194 275.484 84.8502 275.664C84.5065 275.845 84.1277 275.95 83.7399 275.971C83.3522 275.992 82.9643 275.93 82.6029 275.787C82.2413 275.645 81.9148 275.426 81.6454 275.147L72.2049 265.344C70.6385 264.121 69.6208 262.327 69.3752 260.355C69.1296 258.383 69.6759 256.393 70.8945 254.824C72.1131 253.254 73.9044 252.232 75.8757 251.981C77.8471 251.73 79.8375 252.27 81.4107 253.485L93.2511 260.105C93.59 260.295 93.8841 260.556 94.1134 260.869C94.3425 261.182 94.5014 261.542 94.5793 261.922C94.6571 262.303 94.652 262.696 94.5644 263.074C94.4766 263.453 94.3084 263.808 94.0712 264.115Z" fill="#FF6584"/>
<path d="M61.7497 282.894L48.3159 280.468C47.9337 280.399 47.5708 280.248 47.252 280.027C46.9332 279.804 46.666 279.517 46.4685 279.182C46.2711 278.848 46.1481 278.475 46.1078 278.088C46.0676 277.702 46.1111 277.311 46.2353 276.943L50.5903 264.05C50.9544 262.095 52.0784 260.366 53.7159 259.239C55.3533 258.114 57.3706 257.682 59.3251 258.042C61.2799 258.4 63.0125 259.519 64.1431 261.154C65.2736 262.788 65.71 264.804 65.3564 266.76L64.9315 280.319C64.9192 280.707 64.8234 281.089 64.6506 281.436C64.4777 281.784 64.232 282.09 63.93 282.335C63.6281 282.579 63.2771 282.756 62.9008 282.852C62.5245 282.948 62.132 282.963 61.7497 282.894Z" fill="#FF6584"/>
<path d="M65.8634 227.012C69.6552 229.607 74.6337 232.275 78.5063 229.51C79.7176 228.588 80.5976 227.298 81.0146 225.834C81.4315 224.369 81.3629 222.809 80.8191 221.387C78.9648 216.085 73.87 213.75 68.9982 211.96C62.6648 209.634 55.7686 207.783 49.2305 209.449C42.6922 211.116 36.914 217.446 38.0943 224.089C39.0434 229.431 44.0826 233.876 43.3672 239.255C42.6473 244.668 36.5597 247.517 31.1853 248.485C25.8109 249.452 19.7969 249.762 15.9346 253.623C11.0075 258.547 12.2379 267.349 16.8741 272.549C21.5103 277.749 28.5067 280.105 35.2861 281.707C44.2683 283.83 53.9834 284.946 62.5143 281.423C71.0452 277.899 77.6838 268.416 75.2126 259.524C74.1687 255.767 71.7097 252.592 69.3332 249.503C66.9567 246.412 64.5503 243.18 63.6437 239.388C62.8883 236.228 63.4474 232.56 65.5429 230.19C65.9239 229.774 66.1638 229.25 66.2279 228.69C66.2921 228.13 66.1773 227.564 65.8999 227.075L65.8634 227.012Z" fill="#2F2E41"/>
<path d="M122.091 445.945H0.646262C0.476741 445.945 0.314162 445.877 0.194292 445.757C0.0744217 445.637 0.00708008 445.475 0.00708008 445.306C0.00708008 445.136 0.0744217 444.974 0.194292 444.853C0.314162 444.733 0.476741 444.666 0.646262 444.666H122.091C122.26 444.666 122.423 444.733 122.542 444.853C122.662 444.974 122.73 445.136 122.73 445.306C122.73 445.475 122.662 445.637 122.542 445.757C122.423 445.877 122.26 445.945 122.091 445.945Z" fill="#CCCCCC"/>
</svg>
